<?xml version="1.0" encoding="UTF-8"?>
<svg width="28px" height="28px" viewBox="0 0 28 28" version="1.1" xmlns="http://www.w3.org/2000/svg" xmlns:xlink="http://www.w3.org/1999/xlink">
    <!-- Generator: Sketch 52.5 (67469) - http://www.bohemiancoding.com/sketch -->
    <title>bitcoin</title>
    <desc>Created with Sketch.</desc>
    <g id="bitcoin" stroke="none" stroke-width="1" fill="none" fill-rule="evenodd">
        <path d="M27.5851199,17.3871499 C25.715024,24.8872995 18.1178142,29.45179 10.6159906,27.5814557 C3.11722992,25.711559 -1.44774676,18.1147209 0.423224227,10.6150088 C2.292445,3.11398425 9.88965483,-1.45094373 17.3892906,0.41895297 C24.8906766,2.28884967 29.4552158,9.88656286 27.5851199,17.3871499 Z M20.1752213,12.0058375 C20.4539121,10.1429408 19.0355206,9.14149171 17.0960606,8.47342146 L17.7251929,5.94989217 L16.1891126,5.56707522 L15.5766054,8.02410374 C15.1727883,7.92347758 14.7580334,7.82853897 14.3459037,7.73447538 L14.9627858,5.26125918 L13.4275805,4.87844223 L12.7980107,7.40109651 C12.4637568,7.32497063 12.135628,7.24971976 11.8171243,7.17053134 L11.8188743,7.16265624 L9.70047474,6.63371261 L9.291845,8.27435665 C9.291845,8.27435665 10.4315457,8.53554718 10.4074829,8.55173487 C11.0296152,8.70704917 11.142054,9.11874145 11.1232413,9.44512024 L10.4066079,12.3199661 C10.4494834,12.3309037 10.5050466,12.3466539 10.5662973,12.3711542 C10.5151092,12.3584666 10.4604211,12.3444664 10.4039829,12.3309037 L9.39947125,16.358138 C9.32334537,16.5471402 9.13040563,16.8306435 8.69552558,16.7230172 C8.71083826,16.74533 7.57901262,16.4443265 7.57901262,16.4443265 L6.81644127,18.2026594 L8.81540197,18.7009777 C9.18728129,18.7941663 9.55172302,18.8917299 9.91047718,18.983606 L9.2747823,21.5360106 L10.8091126,21.9188275 L11.4386824,19.3935482 C11.8578123,19.5072995 12.264692,19.6123007 12.6628216,19.7111769 L12.0354393,22.2246436 L13.5715197,22.6074605 L14.2072146,20.0598684 C16.8265575,20.5555617 18.7962053,20.3556219 19.6252774,17.9865319 C20.2933477,16.0790097 19.5920271,14.9786845 18.2138861,14.2611761 C19.2175227,14.029736 19.9735315,13.3695408 20.1752213,12.0058375 Z M16.6655556,16.9273321 C16.1908626,18.8348542 12.9791378,17.8036548 11.9378757,17.5450893 L12.7813855,14.1636125 C13.8226476,14.4234905 17.1616863,14.9379965 16.6655556,16.9273321 Z M17.1406861,11.9782746 C16.7075561,13.7134198 14.0344,12.831847 13.167265,12.6157195 L13.9320239,9.54880894 C14.7991589,9.76493645 17.5917538,10.1683161 17.1406861,11.9782746 Z" fill="#C2C8CC"></path>
    </g>
</svg>