<?xml version="1.0" encoding="UTF-8"?>
<svg width="32px" height="32px" viewBox="0 0 32 32" version="1.1" xmlns="http://www.w3.org/2000/svg" xmlns:xlink="http://www.w3.org/1999/xlink">
    <!-- Generator: Sketch 52.5 (67469) - http://www.bohemiancoding.com/sketch -->
    <title>Favicon</title>
    <desc>Created with Sketch.</desc>
    <g id="Favicon" stroke="none" stroke-width="1" fill="none" fill-rule="evenodd">
        <path d="M18.0277195,0.25201039 C19.7711879,0.25201039 21.3314425,0.687870966 22.7085299,1.55960519 C24.0856173,2.43133942 25.1721103,3.68206977 25.9680416,5.31183377 C26.7639728,6.94159776 27.1619325,8.86822784 27.1619325,11.0917818 C27.1619325,13.2900681 26.7639728,15.2103814 25.9680416,16.8527792 C25.1721103,18.495177 24.0856173,19.7522242 22.7085299,20.6239584 C21.3314425,21.4956927 19.7711879,21.9315532 18.0277195,21.9315532 C16.4105893,21.9315532 15.0208889,21.5651777 13.8585766,20.8324156 C12.6962643,20.0996535 11.8498104,19.1015959 11.3191896,17.838213 L11.3191896,31.7479896 L4.83806753,31.7479896 L4.83806753,0.517319481 L11.3191896,0.517319481 L11.3191896,4.34535065 C11.8498104,3.08196771 12.6962643,2.08391016 13.8585766,1.35114805 C15.0208889,0.618385947 16.4105893,0.25201039 18.0277195,0.25201039 Z M15.9431481,5.93720519 C14.5786945,5.93720519 13.4606173,6.39833305 12.5888831,7.3206026 C11.7171489,8.24287214 11.2812883,9.49991931 11.2812883,11.0917818 C11.2812883,12.6583767 11.7171489,13.909107 12.5888831,14.8440104 C13.4606173,15.7789138 14.5786945,16.2463584 15.9431481,16.2463584 C17.3328693,16.2463584 18.4509464,15.7915474 19.297413,14.8819117 C20.1438796,13.972276 20.5671065,12.708912 20.5671065,11.0917818 C20.5671065,9.47465165 20.1438796,8.21128767 19.297413,7.30165195 C18.4509464,6.39201623 17.3328693,5.93720519 15.9431481,5.93720519 Z" id="pickadate" fill="#000000"></path>
        <rect id="underline" fill="#0474C5" x="14.5780675" y="26.6532571" width="12.2181818" height="4.98701299"></rect>
    </g>
</svg>