<?xml version="1.0" encoding="UTF-8"?>
<svg width="207px" height="42px" viewBox="0 0 207 42" version="1.1" xmlns="http://www.w3.org/2000/svg" xmlns:xlink="http://www.w3.org/1999/xlink">
    <!-- Generator: Sketch 52.5 (67469) - http://www.bohemiancoding.com/sketch -->
    <title>Flattened</title>
    <desc>Created with Sketch.</desc>
    <g id="Flattened" stroke="none" stroke-width="1" fill="none" fill-rule="evenodd">
        <path d="M13.466,9.53 C15.2140087,9.53 16.7783264,9.96699563 18.159,10.841 C19.5396736,11.7150044 20.628996,12.9689918 21.427,14.603 C22.225004,16.2370082 22.624,18.1686555 22.624,20.398 C22.624,22.602011 22.225004,24.5273251 21.427,26.174 C20.628996,27.8206749 19.5396736,29.0809956 18.159,29.955 C16.7783264,30.8290044 15.2140087,31.266 13.466,31.266 C11.8446586,31.266 10.4513392,30.8986703 9.286,30.164 C8.12066084,29.4293297 7.27200266,28.428673 6.74,27.162 L6.74,41.108 L0.242,41.108 L0.242,9.796 L6.74,9.796 L6.74,13.634 C7.27200266,12.367327 8.12066084,11.3666703 9.286,10.632 C10.4513392,9.89732966 11.8446586,9.53 13.466,9.53 Z M11.376,15.23 C10.0079932,15.23 8.88700437,15.6923287 8.013,16.617 C7.13899563,17.5416713 6.702,18.801992 6.702,20.398 C6.702,21.9686745 7.13899563,23.222662 8.013,24.16 C8.88700437,25.097338 10.0079932,25.566 11.376,25.566 C12.7693403,25.566 13.8903291,25.1100046 14.739,24.198 C15.5876709,23.2859954 16.012,22.0193414 16.012,20.398 C16.012,18.7766586 15.5876709,17.5100046 14.739,16.598 C13.8903291,15.6859954 12.7693403,15.23 11.376,15.23 Z M23.418,3.83 C23.418,2.84199506 23.7726631,2.02500323 24.482,1.379 C25.1913369,0.73299677 26.1286608,0.41 27.294,0.41 C28.4593392,0.41 29.3966631,0.73299677 30.106,1.379 C30.8153369,2.02500323 31.17,2.84199506 31.17,3.83 C31.17,4.79267148 30.8153369,5.59699677 30.106,6.243 C29.3966631,6.88900323 28.4593392,7.212 27.294,7.212 C26.1286608,7.212 25.1913369,6.88900323 24.482,6.243 C23.7726631,5.59699677 23.418,4.79267148 23.418,3.83 Z M30.524,9.796 L30.524,31 L24.026,31 L24.026,9.796 L30.524,9.796 Z M42.704,9.53 C45.4400137,9.53 47.7326574,10.2836591 49.582,11.791 C51.4313426,13.2983409 52.5966643,15.3693202 53.078,18.004 L46.2,18.004 C45.9973323,17.0919954 45.5793365,16.3826692 44.946,15.876 C44.3126635,15.3693308 43.5146715,15.116 42.552,15.116 C41.4119943,15.116 40.4746703,15.5656622 39.74,16.465 C39.0053297,17.3643378 38.638,18.6753247 38.638,20.398 C38.638,22.1206753 39.0053297,23.4316622 39.74,24.331 C40.4746703,25.2303378 41.4119943,25.68 42.552,25.68 C43.5146715,25.68 44.3126635,25.4266692 44.946,24.92 C45.5793365,24.4133308 45.9973323,23.7040046 46.2,22.792 L53.078,22.792 C52.5966643,25.4266798 51.4313426,27.4976591 49.582,29.005 C47.7326574,30.5123409 45.4400137,31.266 42.704,31.266 C40.6266563,31.266 38.7836747,30.8290044 37.175,29.955 C35.5663253,29.0809956 34.3060046,27.8206749 33.394,26.174 C32.4819954,24.5273251 32.026,22.602011 32.026,20.398 C32.026,18.1686555 32.4756622,16.2370082 33.375,14.603 C34.2743378,12.9689918 35.5346586,11.7150044 37.156,10.841 C38.7773414,9.96699563 40.6266563,9.53 42.704,9.53 Z M67.424,31 L61.078,21.994 L61.078,31 L54.58,31 L54.58,2.88 L61.078,2.88 L61.078,18.308 L67.424,9.796 L75.062,9.796 L66.512,20.398 L75.252,31 L67.424,31 Z M82.684,9.53 C84.3053414,9.53 85.6986608,9.89732966 86.864,10.632 C88.0293392,11.3666703 88.8906639,12.367327 89.448,13.634 L89.448,9.796 L95.908,9.796 L95.908,31 L89.448,31 L89.448,27.162 C88.8906639,28.428673 88.0293392,29.4293297 86.864,30.164 C85.6986608,30.8986703 84.3053414,31.266 82.684,31.266 C80.9359913,31.266 79.3716736,30.8290044 77.991,29.955 C76.6103264,29.0809956 75.521004,27.8206749 74.723,26.174 C73.924996,24.5273251 73.526,22.602011 73.526,20.398 C73.526,18.1686555 73.924996,16.2370082 74.723,14.603 C75.521004,12.9689918 76.6103264,11.7150044 77.991,10.841 C79.3716736,9.96699563 80.9359913,9.53 82.684,9.53 Z M84.774,15.23 C83.3806597,15.23 82.2596709,15.6859954 81.411,16.598 C80.5623291,17.5100046 80.138,18.7766586 80.138,20.398 C80.138,22.0193414 80.5623291,23.2859954 81.411,24.198 C82.2596709,25.1100046 83.3806597,25.566 84.774,25.566 C86.1420068,25.566 87.2629956,25.097338 88.137,24.16 C89.0110044,23.222662 89.448,21.9686745 89.448,20.398 C89.448,18.801992 89.0110044,17.5416713 88.137,16.617 C87.2629956,15.6923287 86.1420068,15.23 84.774,15.23 Z M106.468,9.53 C108.089341,9.53 109.482661,9.89732966 110.648,10.632 C111.813339,11.3666703 112.661997,12.367327 113.194,13.634 L113.194,2.88 L119.692,2.88 L119.692,31 L113.194,31 L113.194,27.162 C112.661997,28.428673 111.813339,29.4293297 110.648,30.164 C109.482661,30.8986703 108.089341,31.266 106.468,31.266 C104.719991,31.266 103.155674,30.8290044 101.775,29.955 C100.394326,29.0809956 99.305004,27.8206749 98.507,26.174 C97.708996,24.5273251 97.31,22.602011 97.31,20.398 C97.31,18.1686555 97.708996,16.2370082 98.507,14.603 C99.305004,12.9689918 100.394326,11.7150044 101.775,10.841 C103.155674,9.96699563 104.719991,9.53 106.468,9.53 Z M108.558,15.23 C107.16466,15.23 106.043671,15.6859954 105.195,16.598 C104.346329,17.5100046 103.922,18.7766586 103.922,20.398 C103.922,22.0193414 104.346329,23.2859954 105.195,24.198 C106.043671,25.1100046 107.16466,25.566 108.558,25.566 C109.926007,25.566 111.046996,25.097338 111.921,24.16 C112.795004,23.222662 113.232,21.9686745 113.232,20.398 C113.232,18.801992 112.795004,17.5416713 111.921,16.617 C111.046996,15.6923287 109.926007,15.23 108.558,15.23 Z M130.252,9.53 C131.873341,9.53 133.266661,9.89732966 134.432,10.632 C135.597339,11.3666703 136.458664,12.367327 137.016,13.634 L137.016,9.796 L143.476,9.796 L143.476,31 L137.016,31 L137.016,27.162 C136.458664,28.428673 135.597339,29.4293297 134.432,30.164 C133.266661,30.8986703 131.873341,31.266 130.252,31.266 C128.503991,31.266 126.939674,30.8290044 125.559,29.955 C124.178326,29.0809956 123.089004,27.8206749 122.291,26.174 C121.492996,24.5273251 121.094,22.602011 121.094,20.398 C121.094,18.1686555 121.492996,16.2370082 122.291,14.603 C123.089004,12.9689918 124.178326,11.7150044 125.559,10.841 C126.939674,9.96699563 128.503991,9.53 130.252,9.53 Z M132.342,15.23 C130.94866,15.23 129.827671,15.6859954 128.979,16.598 C128.130329,17.5100046 127.706,18.7766586 127.706,20.398 C127.706,22.0193414 128.130329,23.2859954 128.979,24.198 C129.827671,25.1100046 130.94866,25.566 132.342,25.566 C133.710007,25.566 134.830996,25.097338 135.705,24.16 C136.579004,23.222662 137.016,21.9686745 137.016,20.398 C137.016,18.801992 136.579004,17.5416713 135.705,16.617 C134.830996,15.6923287 133.710007,15.23 132.342,15.23 Z M158.384667,25.414 L158.384667,31 L155.458667,31 C152.975988,31 151.044341,30.3856728 149.663667,29.157 C148.282993,27.9283272 147.592667,25.8953475 147.592667,23.058 L147.592667,15.268 L144.742667,15.268 L144.742667,9.796 L147.592667,9.796 L147.592667,4.59 L154.090667,4.59 L154.090667,9.796 L158.346667,9.796 L158.346667,15.268 L154.090667,15.268 L154.090667,23.172 C154.090667,24.0080042 154.261665,24.590665 154.603667,24.92 C154.945669,25.249335 155.521996,25.414 156.332667,25.414 L158.384667,25.414 Z M180.392667,19.828 C180.392667,20.3600027 180.329334,20.9426635 180.202667,21.576 L165.496667,21.576 C165.572667,23.172008 165.977997,24.3183299 166.712667,25.015 C167.447337,25.7116702 168.384661,26.06 169.524667,26.06 C170.487338,26.06 171.285331,25.8193357 171.918667,25.338 C172.552004,24.8566643 172.969999,24.2360038 173.172667,23.476 L180.050667,23.476 C179.771999,24.9706741 179.164005,26.3069941 178.226667,27.485 C177.289329,28.6630059 176.098674,29.5876633 174.654667,30.259 C173.21066,30.9303367 171.602009,31.266 169.828667,31.266 C167.751323,31.266 165.908342,30.8290044 164.299667,29.955 C162.690992,29.0809956 161.430672,27.8206749 160.518667,26.174 C159.606662,24.5273251 159.150667,22.602011 159.150667,20.398 C159.150667,18.1686555 159.600329,16.2370082 160.499667,14.603 C161.399005,12.9689918 162.659326,11.7150044 164.280667,10.841 C165.902008,9.96699563 167.751323,9.53 169.828667,9.53 C171.931344,9.53 173.780659,9.96066236 175.376667,10.822 C176.972675,11.6833376 178.207663,12.8929922 179.081667,14.451 C179.955671,16.0090078 180.392667,17.8013232 180.392667,19.828 Z M173.818667,18.84 C173.844,17.4466597 173.470338,16.4016702 172.697667,15.705 C171.924996,15.0083299 170.968673,14.66 169.828667,14.66 C168.637994,14.66 167.650004,15.0146631 166.864667,15.724 C166.07933,16.4333369 165.636001,17.4719932 165.534667,18.84 L173.818667,18.84 Z" id="pickadate" fill="#000000"></path>
        <path d="M183.825334,28.378 L183.825334,31 L181.127334,31 L181.127334,28.378 L183.825334,28.378 Z M182.470001,39.17 L183.876001,39.17 C184.914673,39.17 185.668332,38.9420023 186.137001,38.486 C186.60567,38.0299977 186.840001,37.2193392 186.840001,36.054 L186.840001,10.366 L188.588001,10.366 L188.588001,36.244 C188.588001,39.2333483 187.068016,40.728 184.028001,40.728 L182.470001,40.728 L182.470001,39.17 Z M198.974668,10.1 C201.128012,10.1 202.863328,10.6763276 204.180668,11.829 C205.498008,12.9816724 206.283333,14.5586567 206.536668,16.56 L204.902668,16.56 C204.750667,15.0906593 204.161673,13.8683382 203.135668,12.893 C202.109663,11.9176618 200.722677,11.43 198.974668,11.43 C197.429327,11.43 196.219672,11.8099962 195.345668,12.57 C194.471664,13.3300038 194.034668,14.343327 194.034668,15.61 C194.034668,16.547338 194.294332,17.2946639 194.813668,17.852 C195.333004,18.4093361 195.966331,18.8209987 196.713668,19.087 C197.461005,19.3530013 198.505995,19.650665 199.848668,19.98 C201.343342,20.309335 202.546663,20.6513316 203.458668,21.006 C204.370673,21.3606684 205.143331,21.9179962 205.776668,22.678 C206.410004,23.4380038 206.726668,24.4766601 206.726668,25.794 C206.726668,27.4153414 206.144007,28.7326616 204.978668,29.746 C203.813329,30.7593384 202.280677,31.266 200.380668,31.266 C198.100657,31.266 196.232342,30.6896724 194.775668,29.537 C193.318994,28.3843276 192.451336,26.8073433 192.172668,24.806 L193.882668,24.806 C194.034669,26.2753407 194.674329,27.4976618 195.801668,28.473 C196.929007,29.4483382 198.467992,29.936 200.418668,29.936 C201.888009,29.936 203.034331,29.5496705 203.857668,28.777 C204.681005,28.0043295 205.092668,26.9973395 205.092668,25.756 C205.092668,24.7679951 204.826671,23.9763363 204.294668,23.381 C203.762665,22.7856637 203.097672,22.3486681 202.299668,22.07 C201.501664,21.7913319 200.444008,21.5000015 199.126668,21.196 C197.631994,20.8413316 196.447672,20.4930017 195.573668,20.151 C194.699664,19.8089983 193.952338,19.2770036 193.331668,18.555 C192.710998,17.8329964 192.400668,16.8513395 192.400668,15.61 C192.400668,13.9379916 192.995995,12.6016717 194.186668,11.601 C195.377341,10.6003283 196.973325,10.1 198.974668,10.1 Z M187.714001,5.578 C187.283332,5.578 186.928669,5.44500133 186.650001,5.179 C186.371333,4.91299867 186.232001,4.56466882 186.232001,4.134 C186.232001,3.72866464 186.371333,3.39300133 186.650001,3.127 C186.928669,2.86099867 187.283332,2.728 187.714001,2.728 C188.14467,2.728 188.499333,2.86099867 188.778001,3.127 C189.056669,3.39300133 189.196001,3.72866464 189.196001,4.134 C189.196001,4.56466882 189.056669,4.91299867 188.778001,5.179 C188.499333,5.44500133 188.14467,5.578 187.714001,5.578 Z" id=".js" fill="#CCCCCC"></path>
        <rect id="underline" fill="#0474C5" x="10" y="36" width="170" height="5"></rect>
    </g>
</svg>