<svg width="28" height="28" viewBox="0 0 28 28" xmlns="http://www.w3.org/2000/svg"><path d="M27.585 17.387c-1.87 7.5-9.467 12.065-16.969 10.194C3.117 25.711-1.448 18.115.423 10.615 2.293 3.114 9.89-1.451 17.39.419c7.502 1.87 12.066 9.468 10.196 16.968zm-7.41-5.381c.279-1.863-1.14-2.865-3.079-3.533l.63-2.523-1.537-.383-.612 2.457c-.404-.1-.819-.195-1.231-.29l.617-2.473-1.535-.383-.63 2.523a51.388 51.388 0 0 1-.98-.23v-.008L9.7 6.633l-.408 1.641s1.14.262 1.115.278c.623.155.735.567.716.893l-.716 2.875c.042.01.098.027.16.051l-.163-.04-1.005 4.027c-.076.19-.269.473-.703.365.015.022-1.117-.279-1.117-.279l-.763 1.759 2 .498c.371.093.736.19 1.094.283l-.635 2.552 1.534.383.63-2.525c.419.113.826.218 1.224.317l-.628 2.514 1.537.382.635-2.547c2.62.496 4.59.296 5.418-2.073.668-1.908-.033-3.008-1.411-3.726 1.004-.231 1.76-.891 1.961-2.255zm-3.51 4.921c-.474 1.908-3.686.877-4.727.618l.843-3.381c1.042.26 4.38.774 3.885 2.763zm.476-4.949c-.433 1.735-3.107.854-3.974.638l.765-3.067c.867.216 3.66.62 3.209 2.43z" fill="#bec9cf" fill-rule="evenodd"/></svg>