<svg width="28" height="28" viewBox="0 0 28 28" xmlns="http://www.w3.org/2000/svg"><path d="M27.581 17.387c-1.87 7.5-9.467 12.065-16.969 10.194C3.113 25.711-1.452 18.115.42 10.615 2.29 3.114 9.886-1.451 17.385.419c7.502 1.87 12.066 9.468 10.196 16.968zM15.125 5.25h-1.617v2.126c-.609.059-1.136.214-1.581.466a3.864 3.864 0 0 0-1.116.931 3.757 3.757 0 0 0-.668 1.256 4.86 4.86 0 0 0-.22 1.459c0 .48.065.905.194 1.274s.328.7.598.992c.269.293.614.55 1.036.773.422.223.931.428 1.529.615l1.001.317c.762.246 1.142.626 1.142 1.142 0 .375-.16.68-.483.913a1.87 1.87 0 0 1-1.133.352c-1.043 0-2.114-.486-3.215-1.459l-1.424 2.654c.223.21.507.412.852.606.346.193.718.363 1.116.51.398.146.803.263 1.213.35.41.089.796.132 1.16.132v2.091h1.616v-2.178a9.626 9.626 0 0 0 1.73-.703 4.048 4.048 0 0 0 1.151-.896c.293-.34.504-.727.633-1.16a5.25 5.25 0 0 0 .193-1.493c0-.926-.258-1.678-.773-2.258-.515-.58-1.353-1.07-2.513-1.467l-1.036-.352a2.449 2.449 0 0 1-.879-.51c-.222-.21-.334-.433-.334-.667 0-.258.14-.489.422-.694.281-.205.644-.307 1.09-.307.726 0 1.464.287 2.213.86l1.3-2.53c-.866-.55-1.932-.89-3.197-1.019V5.25z" fill="#bec9cf" fill-rule="evenodd"/></svg>