<svg width="32" height="32" viewBox="0 0 32 32" xmlns="http://www.w3.org/2000/svg"><g fill="none" fill-rule="evenodd"><path d="M18.028.252c1.743 0 3.303.436 4.68 1.308 1.378.871 2.464 2.122 3.26 3.752.796 1.63 1.194 3.556 1.194 5.78 0 2.198-.398 4.118-1.194 5.76-.796 1.643-1.882 2.9-3.26 3.772-1.377.872-2.937 1.308-4.68 1.308-1.617 0-3.007-.367-4.17-1.1a6.383 6.383 0 0 1-2.539-2.994v13.91H4.84V.518h6.48v3.827a6.383 6.383 0 0 1 2.54-2.994C15.02.618 16.41.252 18.028.252zm-2.085 5.685c-1.364 0-2.482.461-3.354 1.384-.872.922-1.308 2.179-1.308 3.77 0 1.567.436 2.818 1.308 3.753.872.935 1.99 1.402 3.354 1.402 1.39 0 2.508-.454 3.354-1.364.847-.91 1.27-2.173 1.27-3.79s-.423-2.88-1.27-3.79c-.846-.91-1.964-1.365-3.354-1.365z" fill="#000"/><path fill="#0474C5" d="M14.578 26.653h12.218v4.987H14.578z"/></g></svg>