<svg width="207" height="42" viewBox="0 0 207 42" xmlns="http://www.w3.org/2000/svg"><g fill="none" fill-rule="evenodd"><path d="M13.466 9.53c1.748 0 3.312.437 4.693 1.311 1.38.874 2.47 2.128 3.268 3.762.798 1.634 1.197 3.566 1.197 5.795 0 2.204-.399 4.13-1.197 5.776-.798 1.647-1.887 2.907-3.268 3.781-1.38.874-2.945 1.311-4.693 1.311-1.621 0-3.015-.367-4.18-1.102a6.4 6.4 0 0 1-2.546-3.002v13.946H.242V9.796H6.74v3.838a6.4 6.4 0 0 1 2.546-3.002c1.165-.735 2.559-1.102 4.18-1.102zm-2.09 5.7c-1.368 0-2.489.462-3.363 1.387-.874.925-1.311 2.185-1.311 3.781 0 1.57.437 2.825 1.311 3.762.874.937 1.995 1.406 3.363 1.406 1.393 0 2.514-.456 3.363-1.368.849-.912 1.273-2.179 1.273-3.8s-.424-2.888-1.273-3.8c-.849-.912-1.97-1.368-3.363-1.368zm12.042-11.4c0-.988.355-1.805 1.064-2.451.71-.646 1.647-.969 2.812-.969 1.165 0 2.103.323 2.812.969.71.646 1.064 1.463 1.064 2.451 0 .963-.355 1.767-1.064 2.413-.71.646-1.647.969-2.812.969-1.165 0-2.103-.323-2.812-.969-.71-.646-1.064-1.45-1.064-2.413zm7.106 5.966V31h-6.498V9.796h6.498zm12.18-.266c2.736 0 5.029.754 6.878 2.261 1.85 1.507 3.015 3.578 3.496 6.213H46.2c-.203-.912-.62-1.621-1.254-2.128-.633-.507-1.431-.76-2.394-.76-1.14 0-2.077.45-2.812 1.349-.735.9-1.102 2.21-1.102 3.933 0 1.723.367 3.034 1.102 3.933.735.9 1.672 1.349 2.812 1.349.963 0 1.76-.253 2.394-.76.633-.507 1.051-1.216 1.254-2.128h6.878c-.481 2.635-1.647 4.706-3.496 6.213-1.85 1.507-4.142 2.261-6.878 2.261-2.077 0-3.92-.437-5.529-1.311-1.609-.874-2.869-2.134-3.781-3.781-.912-1.647-1.368-3.572-1.368-5.776 0-2.23.45-4.161 1.349-5.795.9-1.634 2.16-2.888 3.781-3.762 1.621-.874 3.47-1.311 5.548-1.311zM67.424 31l-6.346-9.006V31H54.58V2.88h6.498v15.428l6.346-8.512h7.638l-8.55 10.602L75.252 31h-7.828zm15.26-21.47c1.621 0 3.015.367 4.18 1.102a6.625 6.625 0 0 1 2.584 3.002V9.796h6.46V31h-6.46v-3.838a6.625 6.625 0 0 1-2.584 3.002c-1.165.735-2.559 1.102-4.18 1.102-1.748 0-3.312-.437-4.693-1.311-1.38-.874-2.47-2.134-3.268-3.781-.798-1.647-1.197-3.572-1.197-5.776 0-2.23.399-4.161 1.197-5.795.798-1.634 1.887-2.888 3.268-3.762 1.38-.874 2.945-1.311 4.693-1.311zm2.09 5.7c-1.393 0-2.514.456-3.363 1.368-.849.912-1.273 2.179-1.273 3.8s.424 2.888 1.273 3.8c.849.912 1.97 1.368 3.363 1.368 1.368 0 2.489-.469 3.363-1.406.874-.937 1.311-2.191 1.311-3.762 0-1.596-.437-2.856-1.311-3.781-.874-.925-1.995-1.387-3.363-1.387zm21.694-5.7c1.621 0 3.015.367 4.18 1.102a6.4 6.4 0 0 1 2.546 3.002V2.88h6.498V31h-6.498v-3.838a6.4 6.4 0 0 1-2.546 3.002c-1.165.735-2.559 1.102-4.18 1.102-1.748 0-3.312-.437-4.693-1.311-1.38-.874-2.47-2.134-3.268-3.781-.798-1.647-1.197-3.572-1.197-5.776 0-2.23.399-4.161 1.197-5.795.798-1.634 1.887-2.888 3.268-3.762 1.38-.874 2.945-1.311 4.693-1.311zm2.09 5.7c-1.393 0-2.514.456-3.363 1.368-.849.912-1.273 2.179-1.273 3.8s.424 2.888 1.273 3.8c.849.912 1.97 1.368 3.363 1.368 1.368 0 2.489-.469 3.363-1.406.874-.937 1.311-2.191 1.311-3.762 0-1.596-.437-2.856-1.311-3.781-.874-.925-1.995-1.387-3.363-1.387zm21.694-5.7c1.621 0 3.015.367 4.18 1.102a6.625 6.625 0 0 1 2.584 3.002V9.796h6.46V31h-6.46v-3.838a6.625 6.625 0 0 1-2.584 3.002c-1.165.735-2.559 1.102-4.18 1.102-1.748 0-3.312-.437-4.693-1.311-1.38-.874-2.47-2.134-3.268-3.781-.798-1.647-1.197-3.572-1.197-5.776 0-2.23.399-4.161 1.197-5.795.798-1.634 1.887-2.888 3.268-3.762 1.38-.874 2.945-1.311 4.693-1.311zm2.09 5.7c-1.393 0-2.514.456-3.363 1.368-.849.912-1.273 2.179-1.273 3.8s.424 2.888 1.273 3.8c.849.912 1.97 1.368 3.363 1.368 1.368 0 2.489-.469 3.363-1.406.874-.937 1.311-2.191 1.311-3.762 0-1.596-.437-2.856-1.311-3.781-.874-.925-1.995-1.387-3.363-1.387zm26.043 10.184V31h-2.926c-2.483 0-4.415-.614-5.795-1.843-1.381-1.229-2.071-3.262-2.071-6.099v-7.79h-2.85V9.796h2.85V4.59h6.498v5.206h4.256v5.472h-4.256v7.904c0 .836.17 1.419.513 1.748.342.33.918.494 1.729.494h2.052zm22.008-5.586c0 .532-.064 1.115-.19 1.748h-14.706c.076 1.596.481 2.742 1.216 3.439.734.697 1.672 1.045 2.812 1.045.962 0 1.76-.24 2.394-.722a3.371 3.371 0 0 0 1.254-1.862h6.878a8.987 8.987 0 0 1-1.824 4.009c-.938 1.178-2.128 2.103-3.572 2.774-1.444.671-3.053 1.007-4.826 1.007-2.078 0-3.92-.437-5.53-1.311-1.608-.874-2.868-2.134-3.78-3.781-.912-1.647-1.368-3.572-1.368-5.776 0-2.23.45-4.161 1.349-5.795a9.249 9.249 0 0 1 3.78-3.762c1.622-.874 3.471-1.311 5.549-1.311 2.102 0 3.952.43 5.548 1.292a9.131 9.131 0 0 1 3.705 3.629c.874 1.558 1.31 3.35 1.31 5.377zm-6.574-.988c.025-1.393-.349-2.438-1.121-3.135-.773-.697-1.73-1.045-2.87-1.045-1.19 0-2.178.355-2.963 1.064-.786.71-1.229 1.748-1.33 3.116h8.284z" fill="#000"/><path d="M183.825 28.378V31h-2.698v-2.622h2.698zM182.47 39.17h1.406c1.039 0 1.792-.228 2.261-.684.469-.456.703-1.267.703-2.432V10.366h1.748v25.878c0 2.99-1.52 4.484-4.56 4.484h-1.558V39.17zm16.505-29.07c2.153 0 3.888.576 5.206 1.729 1.317 1.153 2.102 2.73 2.356 4.731h-1.634c-.152-1.47-.741-2.692-1.767-3.667-1.026-.975-2.413-1.463-4.161-1.463-1.546 0-2.755.38-3.63 1.14-.873.76-1.31 1.773-1.31 3.04 0 .937.26 1.685.779 2.242a4.71 4.71 0 0 0 1.9 1.235c.747.266 1.792.564 3.135.893 1.494.33 2.698.671 3.61 1.026a5.63 5.63 0 0 1 2.318 1.672c.633.76.95 1.799.95 3.116 0 1.621-.583 2.939-1.748 3.952-1.166 1.013-2.698 1.52-4.598 1.52-2.28 0-4.149-.576-5.605-1.729-1.457-1.153-2.325-2.73-2.603-4.731h1.71c.152 1.47.791 2.692 1.919 3.667 1.127.975 2.666 1.463 4.617 1.463 1.469 0 2.615-.386 3.439-1.159.823-.773 1.235-1.78 1.235-3.021 0-.988-.266-1.78-.798-2.375a4.7 4.7 0 0 0-1.995-1.311c-.798-.279-1.856-.57-3.173-.874-1.495-.355-2.68-.703-3.553-1.045a5.616 5.616 0 0 1-2.242-1.596c-.621-.722-.931-1.704-.931-2.945 0-1.672.595-3.008 1.786-4.009 1.19-1 2.786-1.501 4.788-1.501zm-11.261-4.522c-.43 0-.785-.133-1.064-.399s-.418-.614-.418-1.045c0-.405.14-.741.418-1.007.279-.266.633-.399 1.064-.399.43 0 .785.133 1.064.399s.418.602.418 1.007c0 .43-.14.779-.418 1.045-.279.266-.633.399-1.064.399z" fill="#CCC"/><path fill="#0474C5" d="M10 36h170v5H10z"/></g></svg>