<?xml version="1.0" standalone="no"?><!-- Generator: Adobe Fireworks CS6, Export SVG Extension by Aaron Beall (http://fireworks.abeall.com) . Version: 0.6.1  --><!DOCTYPE svg PUBLIC "-//W3C//DTD SVG 1.1//EN" "http://www.w3.org/Graphics/SVG/1.1/DTD/svg11.dtd"><svg id="p.fw-Page%201" viewBox="0 0 40 40" style="background-color:#ffffff00" version="1.1"	xmlns="http://www.w3.org/2000/svg" xmlns:xlink="http://www.w3.org/1999/xlink" xml:space="preserve"	x="0px" y="0px" width="40px" height="40px">	<g id="Layer%201">		<path d="M 22.6709 23.2383 C 23.3799 22.8237 23.9536 22.2827 24.3916 21.6157 C 24.8291 20.9492 25.1392 20.1714 25.3203 19.2827 C 25.501 18.3936 25.5918 17.4902 25.5918 16.5713 C 25.5918 15.6533 25.4937 14.749 25.2974 13.8604 C 25.1006 12.9717 24.7769 12.1792 24.3237 11.4824 C 23.8711 10.7866 23.2896 10.2236 22.5806 9.7935 C 21.8706 9.3643 21.0024 9.1494 19.9766 9.1494 C 18.9194 9.1494 18.0366 9.3643 17.3276 9.7935 C 16.6182 10.2236 16.0439 10.7788 15.6069 11.4604 C 15.1689 12.1421 14.8599 12.9268 14.6787 13.8159 C 14.4976 14.7046 14.4067 15.6235 14.4067 16.5713 C 14.4067 17.4902 14.5044 18.3936 14.7012 19.2827 C 14.897 20.1714 15.2144 20.9492 15.6523 21.6157 C 16.0894 22.2827 16.6709 22.8237 17.3955 23.2383 C 18.1201 23.6533 18.9956 23.8604 20.022 23.8604 C 21.0786 23.8604 21.9614 23.6533 22.6709 23.2383 ZM 14.3164 5.0156 L 14.3164 7.9492 L 14.4067 7.9492 C 15.1914 6.7046 16.188 5.8013 17.3955 5.2383 C 18.6025 4.6758 19.9312 4.3936 21.3804 4.3936 C 23.2217 4.3936 24.8062 4.7349 26.1353 5.416 C 27.4634 6.0977 28.5649 7.0015 29.4409 8.127 C 30.3159 9.2534 30.9648 10.5645 31.3882 12.0605 C 31.8105 13.5566 32.022 15.1201 32.022 16.749 C 32.022 18.29 31.8105 19.7715 31.3882 21.1938 C 30.9648 22.6157 30.3237 23.8755 29.4634 24.9717 C 28.603 26.0679 27.5313 26.9424 26.2485 27.5938 C 24.9648 28.2451 23.4634 28.5713 21.7427 28.5713 C 20.2935 28.5713 18.958 28.2827 17.7354 27.7046 C 16.5127 27.127 15.5088 26.2754 14.7236 25.1494 L 14.6333 25.1494 L 14.6333 35.978 L 8.0156 35.978 L 8.0156 5.0156 L 14.3164 5.0156 Z" fill="#000000"/>	</g></svg>