<?xml version="1.0" standalone="no"?><!-- Generator: Adobe Fireworks CS6, Export SVG Extension by Aaron Beall (http://fireworks.abeall.com) . Version: 0.6.1  --><!DOCTYPE svg PUBLIC "-//W3C//DTD SVG 1.1//EN" "http://www.w3.org/Graphics/SVG/1.1/DTD/svg11.dtd"><svg id="Untitled-Page%201" viewBox="0 0 40 40" style="background-color:#ffffff00" version="1.1"	xmlns="http://www.w3.org/2000/svg" xmlns:xlink="http://www.w3.org/1999/xlink" xml:space="preserve"	x="0px" y="0px" width="40px" height="40px">	<g id="Layer%201">		<g>			<path d="M 28.7968 13.2987 C 29.2347 11.7417 29.4558 10.6701 29.4558 10.0838 C 29.4558 9.3129 29.2538 8.6987 28.8542 8.2391 C 28.4524 7.7795 27.9167 7.5498 27.2449 7.5498 C 25.8759 7.5498 24.2453 10.3179 22.3512 15.852 L 21.7411 17.6087 C 21.5689 17.089 21.318 16.3503 20.9906 15.3903 C 19.0944 9.7982 17.5298 7 16.2946 7 C 15.5697 7 14.9979 7.2427 14.577 7.728 C 14.156 8.2133 13.9456 8.8662 13.9456 9.6908 C 13.9456 10.2878 14.1752 11.3745 14.6344 12.9486 C 15.0935 14.5227 15.827 16.7561 16.8367 19.651 C 16.4945 19.4534 16.1926 19.3095 15.9311 19.2236 C 15.6675 19.1377 15.4188 19.0948 15.1849 19.0948 C 14.6322 19.0948 14.0391 19.4062 13.4035 20.029 C 12.7657 20.6517 12.449 21.2616 12.449 21.8586 C 12.449 22.0304 12.4936 22.2774 12.585 22.5952 C 12.6764 22.9131 12.821 23.3039 13.0187 23.7678 C 11.9728 23.9954 11.2075 24.4206 10.7249 25.0434 C 10.2402 25.6683 10 26.5509 10 27.6934 C 10 28.7156 10.236 29.7164 10.71 30.6914 C 11.182 31.6685 11.892 32.594 12.8401 33.4702 C 13.6692 34.267 14.6577 34.8876 15.8078 35.3321 C 16.9579 35.7767 18.1441 36 19.3686 36 C 22.4724 36 25.0191 34.937 27.0111 32.8109 C 29.003 30.6849 30 27.9511 30 24.6117 C 30 22.9281 29.7598 21.6954 29.2836 20.9137 C 28.8074 20.132 27.9783 19.6295 26.8006 19.404 C 27.6913 16.8914 28.3567 14.8556 28.7968 13.2987 L 28.7968 13.2987 ZM 22.8848 18.6288 L 24.8788 12.8455 C 25.3444 11.4733 25.7696 10.4768 26.1565 9.8562 C 26.5412 9.2356 26.9196 8.9242 27.2938 8.9242 C 27.585 8.9242 27.8146 9.0315 27.9804 9.2442 C 28.1463 9.4589 28.2313 9.7574 28.2313 10.144 C 28.2313 10.5047 27.9804 11.4754 27.483 13.056 C 26.9834 14.6366 26.2883 16.638 25.3975 19.0647 L 22.8848 18.6288 L 22.8848 18.6288 ZM 19.3474 18.2916 C 19.1093 18.2787 18.952 18.2701 18.8733 18.2701 C 18.6224 18.2701 18.4226 18.3002 18.2781 18.3603 C 18.1335 18.4205 18.0208 18.5235 17.9422 18.6674 C 17.0174 16.2193 16.3244 14.2393 15.8631 12.7296 C 15.3997 11.2199 15.1701 10.1611 15.1701 9.5512 C 15.1701 9.1948 15.2551 8.9091 15.4273 8.6965 C 15.5974 8.4861 15.8227 8.3787 16.1012 8.3787 C 16.4562 8.3787 16.7857 8.6214 17.0897 9.1046 C 17.3937 9.5878 17.8231 10.6164 18.378 12.1927 L 20.5166 18.3904 C 19.9745 18.3389 19.5855 18.3045 19.3474 18.2916 L 19.3474 18.2916 ZM 21.5646 25.1894 C 21.2075 25.5158 20.8673 25.8809 20.5442 26.2804 C 20.4358 25.868 20.2976 25.4471 20.1297 25.0198 C 19.9596 24.5924 19.7683 24.1651 19.5536 23.7399 C 20.0255 23.9138 20.5208 24.0469 21.0395 24.1393 C 21.5582 24.2316 22.1067 24.2918 22.6871 24.3175 C 22.2959 24.5709 21.9218 24.863 21.5646 25.1894 L 21.5646 25.1894 ZM 12.3703 27.7536 C 12.3363 27.8652 12.3214 27.9941 12.3214 28.138 C 12.3214 28.9175 12.7466 29.7121 13.5991 30.5238 C 14.4515 31.3356 15.2912 31.7393 16.1161 31.7393 C 16.639 31.7393 17.0876 31.5611 17.4639 31.2025 C 17.838 30.846 18.0272 30.4165 18.0272 29.9139 C 18.0272 29.8345 18.0166 29.7228 17.9974 29.5811 C 17.9762 29.4394 17.9464 29.2933 17.9082 29.1473 C 18.04 29.1859 18.1611 29.216 18.2696 29.2353 C 18.3759 29.2568 18.4906 29.2654 18.6118 29.2654 C 18.733 29.2654 18.8435 29.2461 18.9456 29.2074 C 19.0455 29.1688 19.1497 29.1022 19.2581 29.0077 L 19.2581 29.1859 C 19.2581 30.2855 19.4281 31.166 19.7725 31.8252 C 20.1169 32.4845 20.5846 32.8346 21.1777 32.8732 L 21.2181 32.6928 L 21.2181 32.5532 C 21.2181 32.4072 21.1118 32.0271 20.9035 31.4086 C 20.6952 30.7901 20.591 30.2618 20.591 29.8216 C 20.591 29.1043 20.8355 28.3441 21.3287 27.5388 C 21.8197 26.7356 22.4702 26.0398 23.2781 25.4536 C 23.6543 25.1873 24.1986 24.9188 24.9128 24.6461 C 25.6271 24.3755 26.0969 24.1329 26.3265 23.9181 C 26.284 23.6389 26.2075 23.4306 26.0927 23.291 C 25.9779 23.1514 25.827 23.0806 25.6399 23.0806 L 24.8108 23.0806 C 22.5191 23.0806 20.861 22.8809 19.8363 22.4814 C 18.8116 22.082 18.2993 21.4377 18.2993 20.5487 C 18.2993 20.1685 18.3992 19.9001 18.5991 19.7433 C 18.7989 19.5866 19.1412 19.5071 19.6216 19.5071 C 21.3435 19.5071 22.9974 19.6875 24.5812 20.044 C 26.1628 20.4005 27.23 20.8042 27.7785 21.253 C 28.0846 21.4914 28.3036 21.8715 28.4375 22.3934 C 28.5714 22.9174 28.6395 23.6217 28.6395 24.5065 C 28.6395 27.4035 27.7764 29.8152 26.0502 31.7393 C 24.324 33.6635 22.1832 34.6256 19.6259 34.6256 C 18.2355 34.6256 16.9664 34.3443 15.8185 33.7795 C 14.6705 33.2168 13.7096 32.4094 12.9358 31.3592 C 12.4235 30.6828 12.0323 30.0084 11.7645 29.3384 C 11.4945 28.6684 11.3605 28.0606 11.3605 27.5152 C 11.3605 26.8387 11.5476 26.2503 11.9239 25.7521 C 12.298 25.2539 12.7083 25.0047 13.1548 25.0047 C 13.3588 25.0047 13.6288 25.1615 13.9647 25.4707 C 14.3006 25.78 14.7258 26.2718 15.236 26.9439 C 15.6803 27.5238 16.0289 28.0456 16.284 28.5073 C 16.5391 28.969 16.6667 29.2976 16.6667 29.4952 C 16.6667 29.667 16.5668 29.8323 16.3712 29.9913 C 16.1756 30.1502 15.9524 30.2275 15.7037 30.2275 C 14.9681 30.2275 14.1688 29.6348 13.3057 28.4451 C 12.9762 28.0156 12.7211 27.6891 12.5383 27.4658 C 12.4575 27.5452 12.4022 27.6419 12.3703 27.7536 L 12.3703 27.7536 ZM 17.2491 27.2382 C 16.7389 26.8044 16.1947 26.1966 15.6186 25.4171 C 15.0659 24.7041 14.628 24.0319 14.3006 23.3984 C 13.9732 22.767 13.8095 22.2903 13.8095 21.9725 C 13.8095 21.6697 13.9753 21.3432 14.3091 20.9932 C 14.6429 20.6453 14.949 20.4692 15.2253 20.4692 C 15.5655 20.4692 15.9247 20.6388 16.3053 20.9739 C 16.6858 21.311 17.0727 21.8092 17.466 22.4685 C 18.0017 23.3533 18.4503 24.2531 18.8116 25.1701 C 19.173 26.0871 19.3537 26.6712 19.3537 26.9203 C 19.3537 27.1587 19.2602 27.3799 19.0774 27.5839 C 18.8946 27.7901 18.6905 27.891 18.4694 27.891 C 18.1675 27.891 17.7594 27.6741 17.2491 27.2382 L 17.2491 27.2382 Z" fill="#000000"/>		</g>	</g></svg>